<svg xmlns="http://www.w3.org/2000/svg" viewBox="0 0 69.56 243.29"><defs><style>.cls-1{stroke:#000;stroke-miterlimit:10;}.cls-2{fill:#aa5600;}.cls-3{fill:#00073b;}.cls-4{fill:#ffbf77;}.cls-5{fill:#e3d674;}.cls-6{fill:#606060;}.cls-7{fill:#d69f64;}</style></defs><title>girl</title><g id="Layer_2" data-name="Layer 2"><g id="Layer_1-2" data-name="Layer 1"><path class="cls-1" d="M39.82,14.9c6.43,7.7-2.41,35.92-4.6,42.53-3,8.95-6.73,20.2-12.87,20.5-6,.29-12.61-9.82-13.64-18.52-.18-1.53.27-6,1.17-14.83.76-7.38,3.76-26.41,4.36-27.16C20.54,9.55,34.77,8.84,39.82,14.9Z"/><path class="cls-2" d="M15.52,227.55a2,2,0,0,1,.54.52c.9,1.33,4.94,3.41,6.08,6s6.06,7.1,3.37,8.45-6.23.65-9.45-.07c-2.46-.54-8.19-4.31-10.78-6.07A2.16,2.16,0,0,1,4.5,234c1.11-3.07,3.82-9.66,6.25-8.83A19.35,19.35,0,0,1,15.52,227.55Z"/><path class="cls-2" d="M55.63,222.82a1.56,1.56,0,0,1,.47.42c.76,1.12,4.43,2.65,5.34,4.88s5.24,5.87,2.62,7.31-5.9,1.11-8.89.74c-2.27-.29-7.42-3.19-9.74-4.55a1.67,1.67,0,0,1-.58-2.1c1.24-2.85,4.21-9,6.44-8.46A15.33,15.33,0,0,1,55.63,222.82Z"/><path class="cls-3" d="M23.23,98.85l25.2-8.49S57.92,152.88,59,176.42c.77,16.66-.6,34.64-1.45,43.91-.28,3-1.45,6.71-3.78,7.23l-2.47.94a2.05,2.05,0,0,1-2.77-1.77l-3.08-41.87a78,78,0,0,0-1.11-10.4L35.93,133s-.08,26.8-2.8,51a154.25,154.25,0,0,1-10,38c-2.88,6.75-5.24,9.44-6.6,10.95a2,2,0,0,1-2.72.05l-3-1.6a1.7,1.7,0,0,1-.79-1.81C12,222,21.64,179.48,19.74,165c-2.07-15.79-9.73-30-7.18-45.82S23.23,98.85,23.23,98.85Z"/><path class="cls-4" d="M.78,66.33l.28,25s.17,1.87.74,2.37,7,9.61,7,9.61l5.81,6.25L14.39,115l-1.65.52-.37,1.35,3.33-.09s13.07-2.16,8-8.67-8.49-10.25-8.49-10.25L10,90.38a6.24,6.24,0,0,1-.71-2.27c0-.93,1.08-23.75,1.08-23.75Z"/><path class="cls-5" d="M.8,66.53c.34-2.29,1.21-4.89,3.84-8.77,3.22-4.76,12-10.08,14.68-11.22,4.71-2,24.21-6.15,24.21-6.15s8.32.88,10.64,3.79S63,64.43,63,64.43s-6.79,7-9.49,4.25c-1.89-1.92-2,14.14-2.65,19.09-.06.38-1.26,3.16-2.17,3.62-5.85,3-26.25,10.88-31.69,5.4-4.25-4.28-6.53-21.33-6.53-21.33s-6.77,1.66-9.41-.24C-1.16,73.64.8,66.53.8,66.53Z"/><rect class="cls-6" x="36.72" y="87.6" width="9.16" height="14.84" rx="3.21" transform="translate(-14.7 7.85) rotate(-9.23)"/><path class="cls-4" d="M66.1,81.17S64.8,77.61,64.58,77,60.4,65.21,60.4,65.21l-6.73,3.7,3,9.86s1.88,5,2.57,6.54a6.41,6.41,0,0,1,.42,1.8c0,.54-.49.58-1,.67l-13,3-3.36,1.38-3.28,2L39.7,97l5-.11S72.34,93,69.33,89"/><path class="cls-7" d="M39.83,37.07s-.8,4.86-1.26,8.65c-.48,4-3.94,7.72-3.94,7.72l-8.06-5.89L25.11,35.68Z"/><path class="cls-4" d="M49.46,15.1A71.56,71.56,0,0,1,47,26.68a40.67,40.67,0,0,1-6.88,13c-1.19,1.35-10.36,3.6-13.93.1-4.88-4.8-11.55-20.18-7-27.36C23.36,5.72,37,4.56,49.46,15.1Z"/><path class="cls-1" d="M13.56,17.51c.09-.48.13-.72.17-.86,1.09-5,6.37-15,16.4-16.06A18.22,18.22,0,0,1,46.35,7.9c1.42,1.95,3.84,5.25,2.92,8.35-2.06,6.89-19.72,9.86-26.3,3.19-1.94-2-3.94-5.61-3.79-4.17.3,2.8-6.32,15-7,14.86C11.63,30,12.42,23.41,13.56,17.51Z"/></g></g></svg>