<svg xmlns="http://www.w3.org/2000/svg" viewBox="0 0 111.22 169.71"><defs><style>.cls-student-1{fill:#eaa289;}.cls-student-2{fill:#002235;}.cls-student-3{fill:#005d8a;}.cls-student-4{fill:#009f43;}</style></defs><title>student</title><g id="Layer_2" data-name="Layer 2"><g id="pies"><path d="M79.65,12.73s1-4.41-1-6.33-1.53-3.65-6-5S64.78-.51,62.19.55s-5.08,1.82-6.52,4S53.18,10.23,54,10.71s0,3-1.63,3.17a40.31,40.31,0,0,1-5.37.58c-3,.09-5.18.28-6.43,2.2a8,8,0,0,0-1.15,5c0,1.44,1,2.3-3.07,2.59s-5.76.29-7.48,3.07a6.57,6.57,0,0,0,0,7.29c1.15,1.44,2,.29.19,3.26s-2.3,5.85-.48,7.2,1.72,1.72,5.27,2,6.62.77,9.6,0,5.85-1.34,6.62-2.3S51.83,38.25,56,37s6.23-.29,7.38-2.11,4.6-6.36,4.74-8.39c.11-1.7.62-1.93-1.2-4.71s.21-4.94,2.12-3.88.68,2.21,1.92,2.3.67-3.74,1.73-4.32,1.34-1.43,3.07-1.82A26.05,26.05,0,0,0,79.65,12.73Z"/><path class="cls-student-1" d="M79.32,12.54c.21.24,1.58,1.06,1.71,2.47a8.83,8.83,0,0,0,1.15,4.17c1,2.16,1.4,1.94,1.84,2.91s.93,1.05,0,1.45-1.45-.69-1.58.2.84,1.78-.84,4.15-.26,3.26-3.07,3.52-3.22-.79-3.83.66S73.51,34.8,74,35.94s2.33,4.18,3.08,4.4-3.08.48-5.1-.61a40.62,40.62,0,0,1-7.3-5.59c-.62-.88,1.23-8.4,1.27-9S65.46,17,65.46,17l5.72-4.75Z"/><path class="cls-student-2" d="M78.88,84.93s4.22,5.69,6.25,15.73S87.76,116,87.76,116l-5,1.52s-4.76,1.22-5.57,1.22-4-6-4-6l-5.57-9.23A56.52,56.52,0,0,1,64,108.67c-.51.3-6.39,8.72-6.39,8.72v.51s-11.42-4.36-11.44-5.38,3-9.63,3-9.63l3.14-11s5.18-12.07,6-12.15S78.88,84.93,78.88,84.93Z"/><path class="cls-student-3" d="M78.16,84.79a2.15,2.15,0,0,0,1.57-1.51C81.26,77.74,82.59,70,82,65.85c-.58-4.39-.41-6.63.58-8s2.28-3.24,1.93-4.65A13.35,13.35,0,0,0,83,49.27a41.5,41.5,0,0,0-5.15-7.22c-.82-.91.27-1.28-2-1.51s-6.54-2.41-8.15-3.69-3.58-3.2-3.58-3.2-1.45,2.84-2.36,4.5-6.73,7.38-6.64,9.34,7.88,5.34,7.88,5.34l-2.41,2.24a21.46,21.46,0,0,1,.25,12.69c-2,7-3.15,11.45-2.49,12S61.64,84.43,69.81,85A30.15,30.15,0,0,0,78.16,84.79Z"/><path class="cls-student-1" d="M55.17,47.49s-9,11.93-9,14.57.59,3.23,3.17,5,3.89,3.36,6.53,4.88,1.25,2.37,5.21,4.16,3,1.51,5,4,1.06,3.37,3.1,3.37,3.17.53,4.23-.86,1.71-1.12,1.78-2.77a12.63,12.63,0,0,0-.71-3.83c-.15-.59-.15-1.65-.61-1.78s-1.19-1.12-1.85-.72-1.59.13-2.18.33a20.53,20.53,0,0,1-3.1.19l-1.51-1.65-2-1.58A19.45,19.45,0,0,1,61.52,69c-.74-.84-7-6.73-7.84-6.87s9.88-8.64,10-9.89S55.17,47.49,55.17,47.49Z"/><path class="cls-student-1" d="M83,57.27l1.61,4.13S89,59.48,92.79,58s7.59-1.51,8.51-3.49a22.51,22.51,0,0,0,1.25-3.43,14.85,14.85,0,0,0,.53-2.25c.2-.53.86.07,2,0a13.46,13.46,0,0,1,2.64-.22c.66.16.73-.11,1.45.55A4.28,4.28,0,0,1,110.6,51a18.89,18.89,0,0,1,.53,2.57,2.12,2.12,0,0,1-.59,2.25c-.46.33.19.92-1.65,1.18a25.22,25.22,0,0,1-3.24.47c-.92,0-.39-.4-2,.33s-.73.52-2.64,2a22.19,22.19,0,0,1-4.49,2.91c-1.58.72-3.63,2.7-4.49,3s-4,3.24-6.13,3.3-3.73.66-3.73,0-2.31-9.62-2.31-9.62Z"/><path class="cls-student-1" d="M87.76,116l2.1,7.47.92,9.32,3.1,22.94-6.12.36s-7.13-17.73-6.85-20.93.73-9.32.73-9.87-4.42-6.55-4.42-6.55Z"/><path class="cls-student-1" d="M56.82,117.58l-.18.25L53,123s-.58,3.56-6.82,2.28-16.85-3.7-16.85-3.7S19,118.14,17.67,118.32s.64-5.85.64-5.85l14.34.46s9.78.82,12.16,2.19.91.09,1.92-1.37S56.82,117.58,56.82,117.58Z"/><path class="cls-student-4" d="M12.81,111.89c.11-.15-.48-1.41-.48-1.41L9.65,109l-2.05-.75H6.29L5.1,109.88l-.63,1.6-.6,1.61-.48,2v1.6l-.67,1.38-.71.63-1,1.64-.78,1.79-.07,2L0,125.9v1.75l.82,1.71h.86l1.49-.56.44-1.23.56-1.34s.63-1.64.63-1.75.75-1.6.75-1.6l2-1.27,2-.48,1.94-.11.56-1.23-1-1H9.76l-.41-1.43-.15-1.94.56-1.49,1-1.47.93-.5Z"/><path class="cls-student-4" d="M95.79,159.75c.19,0,1.67.19,1.67.19l1.19,2,1.09,1.15a22.59,22.59,0,0,1,2.48,1,9.55,9.55,0,0,0,1.86.28h3l1.29.29.57,1.43-.29,1.62L107,168.9l-1.81.52-2.57.29-3.71-.29-2-.71-2.28.43-2.39.23-3.47-.19-1-.47-1.29-.86s-.19-1.57,0-1.71a13,13,0,0,0,.57-2.34l.67-1.52.29-.67,1.47,1.19,1.29.38s2.07-.09,2.39-.19,1.94-.67,1.94-.67a8.32,8.32,0,0,0,.81-.71A9,9,0,0,0,96,160Z"/></g></g></svg>